<?xml version="1.0" standalone="no"?>
<!DOCTYPE svg PUBLIC "-//W3C//DTD SVG 20010904//EN"
 "http://www.w3.org/TR/2001/REC-SVG-20010904/DTD/svg10.dtd">
<svg version="1.0" xmlns="http://www.w3.org/2000/svg"
 width="492.000000pt" height="133.000000pt" viewBox="0 0 492.000000 133.000000"
 preserveAspectRatio="xMidYMid meet">

<g transform="translate(0.000000,133.000000) scale(0.100000,-0.100000)"
fill="#000000" stroke="none">
<path d="M18 1273 c-25 -57 -21 -145 10 -195 11 -18 111 -122 221 -231 143
-142 203 -208 211 -233 12 -36 12 -36 -51 -100 l-63 -63 -76 6 c-90 7 -136 -6
-186 -50 -112 -97 -102 -272 19 -354 153 -103 356 2 357 184 0 28 -4 63 -9 76
-8 22 -2 32 64 97 64 64 75 71 93 61 11 -6 33 -11 49 -11 22 0 44 -15 91 -63
59 -59 62 -65 52 -91 -28 -76 4 -197 67 -246 90 -71 227 -67 306 8 76 72 94
189 43 276 -51 87 -159 133 -255 107 l-45 -12 -65 65 c-53 53 -66 72 -68 100
-3 33 4 42 90 123 343 326 377 368 377 465 0 60 -26 128 -49 128 -10 0 -140
-121 -291 -268 -221 -218 -278 -268 -296 -264 -12 2 -139 121 -285 268 -145
145 -269 264 -277 264 -7 0 -22 -21 -34 -47z m523 -510 c6 -18 17 -23 42 -23
69 0 157 -99 157 -176 0 -23 15 -43 77 -102 70 -66 81 -73 108 -68 95 19 124
18 170 -4 107 -52 134 -180 57 -272 -75 -89 -228 -75 -288 27 -23 39 -26 53
-21 98 3 29 9 65 13 80 6 25 -1 36 -73 108 -67 66 -85 79 -112 79 -40 0 -66
13 -109 54 -40 37 -62 76 -62 110 0 17 -7 27 -23 31 -35 11 -386 364 -408 410
-18 40 -25 115 -12 129 9 9 472 -452 484 -481z m659 436 c0 -22 -6 -54 -13
-72 -12 -28 -387 -410 -423 -430 -16 -9 -63 37 -64 63 0 17 481 490 493 483 4
-2 7 -22 7 -44z m-722 -754 c-81 -75 -93 -96 -79 -137 23 -65 10 -141 -32
-187 -29 -31 -94 -61 -135 -61 -74 0 -151 60 -172 134 -34 121 89 249 208 216
77 -21 92 -15 167 60 66 67 70 69 88 52 19 -17 17 -19 -45 -77z"/>
<path d="M597 636 c-7 -17 18 -40 33 -31 5 3 10 15 10 26 0 23 -35 27 -43 5z"/>
<path d="M985 353 c-39 -10 -75 -44 -86 -83 -14 -48 -6 -81 29 -121 53 -59
162 -48 197 21 35 69 8 147 -61 176 -34 14 -45 15 -79 7z m79 -64 c53 -41 23
-129 -44 -129 -33 0 -80 38 -80 64 0 27 22 64 44 74 32 16 51 14 80 -9z"/>
<path d="M164 342 c-86 -54 -64 -194 35 -222 124 -34 214 116 121 205 -39 37
-111 45 -156 17z m125 -58 c34 -43 24 -86 -26 -112 -32 -18 -51 -15 -78 13
-50 49 -18 125 51 125 23 0 39 -8 53 -26z"/>
<path d="M1400 680 l0 -210 68 0 c37 0 97 -3 135 -7 l67 -6 0 61 0 61 -80 -6
-80 -6 0 162 0 161 -55 0 -55 0 0 -210z"/>
<path d="M1709 883 c0 -5 0 -84 1 -178 1 -193 6 -210 76 -233 77 -27 219 0
240 45 4 10 9 98 12 196 l4 177 -34 0 c-81 0 -78 6 -78 -164 0 -166 -3 -176
-56 -176 -54 0 -59 16 -56 180 3 146 3 147 -20 154 -32 8 -88 8 -89 -1z"/>
<path d="M2097 883 c-4 -3 -7 -98 -7 -210 l0 -203 55 0 55 0 0 70 c0 67 1 70
24 70 21 0 28 -10 51 -70 l27 -70 59 0 59 0 -26 58 c-48 107 -48 102 -17 134
25 26 28 37 28 93 0 71 -16 98 -72 121 -33 14 -224 20 -236 7z m184 -103 c23
-13 26 -62 5 -79 -8 -7 -32 -11 -53 -9 -35 3 -38 6 -41 36 -2 19 -1 40 2 48 6
16 59 19 87 4z"/>
<path d="M2459 884 c-2 -5 -3 -100 -1 -211 l3 -203 58 0 59 0 -6 45 -5 45 54
0 c108 0 164 57 164 165 0 70 -21 112 -69 141 -24 14 -56 19 -142 22 -61 2
-113 0 -115 -4z m201 -104 c24 -24 26 -77 4 -108 -11 -16 -25 -22 -55 -22
l-39 0 0 75 0 75 35 0 c22 0 43 -8 55 -20z"/>
<path d="M2820 690 c0 -110 -1 -203 -2 -207 -2 -5 23 -9 55 -11 l57 -3 0 211
0 210 -55 0 -55 0 0 -200z"/>
<path d="M2990 681 l0 -211 110 0 c127 0 171 13 194 59 23 44 21 113 -5 145
-20 26 -20 28 -4 46 20 23 22 88 4 118 -22 35 -59 45 -181 50 l-118 4 0 -211z
m200 100 c14 -27 -12 -51 -55 -51 -39 0 -49 11 -41 46 5 20 12 24 46 24 29 0
42 -5 50 -19z m-6 -147 c9 -4 16 -18 16 -34 0 -31 -15 -40 -66 -40 -33 0 -34
1 -34 40 0 39 1 40 34 40 19 0 41 -3 50 -6z"/>
<path d="M3405 693 c-38 -109 -70 -204 -73 -211 -3 -10 9 -12 54 -10 53 3 59
5 64 28 5 23 11 25 72 28 65 3 66 3 76 -28 10 -29 14 -30 66 -30 31 0 56 4 56
10 0 12 -128 368 -141 393 -7 12 -22 17 -58 17 l-48 0 -68 -197z m149 -35 c6
-27 5 -28 -29 -28 -40 0 -40 0 -18 66 l17 49 11 -30 c7 -17 15 -42 19 -57z"/>
<path d="M3757 883 c-4 -3 -7 -98 -7 -210 l0 -203 55 0 55 0 0 70 c0 67 1 70
24 70 21 0 28 -10 51 -70 l27 -70 59 0 59 0 -26 58 c-48 107 -48 102 -17 134
25 26 28 37 28 93 0 71 -16 98 -72 121 -33 14 -224 20 -236 7z m184 -103 c23
-13 26 -62 5 -79 -8 -7 -32 -11 -53 -9 -35 3 -38 6 -41 36 -2 19 -1 40 2 48 6
16 59 19 87 4z"/>
<path d="M4110 681 l0 -211 110 0 c127 0 171 13 194 59 23 44 21 113 -5 145
-20 26 -20 28 -4 46 20 23 22 88 4 118 -22 35 -59 45 -181 50 l-118 4 0 -211z
m200 100 c14 -27 -12 -51 -55 -51 -39 0 -49 11 -41 46 5 20 12 24 46 24 29 0
42 -5 50 -19z m-6 -147 c9 -4 16 -18 16 -34 0 -31 -15 -40 -66 -40 -33 0 -34
1 -34 40 0 39 1 40 34 40 19 0 41 -3 50 -6z"/>
<path d="M4470 680 l0 -210 134 0 133 0 7 38 c12 72 14 69 -76 68 l-83 -1 -3
28 -3 27 75 0 76 0 0 53 0 52 -75 -3 -75 -4 0 32 0 33 80 -5 80 -5 0 38 c0 70
2 69 -141 69 l-129 0 0 -210z"/>
</g>
</svg>
